# xmcd CD database file
#
# Track frame offsets:
#	150
#	18902
#	35464
#	55049
#	72972
#	89757
#	103129
#	121714
#	139557
#	157934
#
# Disc length: 2367 seconds
#
# Revision: 4
# Processed by: cddbd v1.5.2PL0 Copyright (c) Steve Scherf et al.
# Submitted via: CDex 1.51
#
DISCID=7a093d0a
DTITLE=The Robert Cray Band - Strong Persuader
DYEAR=1988
DGENRE=Blues
TTITLE0=Smoking Gun
TTITLE1=I Guess I Showed Her
TTITLE2=Right Next Door (Because Of Me)
TTITLE3=Nothin' But A Woman
TTITLE4=Still Around
TTITLE5=More Than I Can Stand
TTITLE6=Foul Play
TTITLE7=I Wonder
TTITLE8=Fantasized
TTITLE9=New Blood
EXTD=YEAR: 1988
EXTT0=
EXTT1=
EXTT2={Because Of Me}\\n
EXTT3=
EXTT4=
EXTT5=
EXTT6=
EXTT7=
EXTT8=
EXTT9=
PLAYORDER=
